<?xml version="1.0" encoding="UTF-8" standalone="no"?>
<!DOCTYPE svg PUBLIC "-//W3C//DTD SVG 1.1//EN" "http://www.w3.org/Graphics/SVG/1.1/DTD/svg11.dtd">
<svg width="100%" height="100%" viewBox="0 0 180 180" version="1.1" xmlns="http://www.w3.org/2000/svg" xmlns:xlink="http://www.w3.org/1999/xlink" xml:space="preserve" xmlns:serif="http://www.serif.com/" style="fill-rule:evenodd;clip-rule:evenodd;stroke-linejoin:round;stroke-miterlimit:2;">
    <rect id="background" x="0" y="0" width="180" height="180" style="fill:rgb(218,218,219);"/>
    <g id="robot" transform="matrix(5.8266,0,0,5.8266,20.0809,20.0809)">
        <path d="M19,8L20,8L20,9L19,9L19,8M20,5L19,5L19,7L20,7L20,6L20.5,6C20.78,6 21,5.78 21,5.5L21,3.5C21,3.22 20.78,3 20.5,3L18,3L18,4L20,4L20,5M17,3L16,3L16,7L17,7L17,3M13.5,15.5C13.5,16.61 14.4,17.5 15.5,17.5C16.6,17.5 17.5,16.61 17.5,15.5C17.5,14.39 16.61,13.5 15.5,13.5C14.39,13.5 13.5,14.4 13.5,15.5M17,8L16,8L16,9L17,9L17,8M22,14L21,14C21,12.5 20.53,11.13 19.74,10L16.97,10C18.19,10.91 19,12.36 19,14L19,16L21,16L21,17L19,17L19,20L5,20L5,17L3,17L3,16L5,16L5,14C5,11.24 7.24,9 10,9L14,9C14.34,9 14.68,9.04 15,9.1L15,7.08C14.67,7.03 14.34,7 14,7L13,7L13,5.73C13.6,5.39 14,4.74 14,4C14,2.9 13.11,2 12,2C10.89,2 10,2.9 10,4C10,4.74 10.4,5.39 11,5.73L11,7L10,7C6.13,7 3,10.13 3,14L2,14C1.45,14 1,14.45 1,15L1,18C1,18.55 1.45,19 2,19L3,19L3,20C3,21.11 3.9,22 5,22L19,22C20.11,22 21,21.11 21,20L21,19L22,19C22.55,19 23,18.55 23,18L23,15C23,14.45 22.55,14 22,14M8.5,13.5C7.4,13.5 6.5,14.4 6.5,15.5C6.5,16.6 7.4,17.5 8.5,17.5C9.6,17.5 10.5,16.61 10.5,15.5C10.5,14.39 9.61,13.5 8.5,13.5Z" style="fill:rgb(30,30,30);fill-rule:nonzero;"/>
    </g>
</svg>
