<svg clip-rule="evenodd" fill-rule="evenodd" stroke-linejoin="round" stroke-miterlimit="2" viewBox="0 0 2445 2446" xmlns="http://www.w3.org/2000/svg"><circle cx="1327.34" cy="1841.12" fill="#f5f5f5" r="87.18" transform="matrix(10.7027 9.04469 -9.06085 10.7219 3698.27 -30522.9)"/><path d="m19 8h1v1h-1zm1-3h-1v2h1v-1h.5c.28 0 .5-.22.5-.5v-2c0-.28-.22-.5-.5-.5h-2.5v1h2zm-3-2h-1v4h1zm-3.5 12.5c0 1.11.9 2 2 2s2-.89 2-2-.89-2-2-2-2 .9-2 2m3.5-7.5h-1v1h1zm5 6h-1c0-1.5-.47-2.87-1.26-4h-2.77c1.22.91 2.03 2.36 2.03 4v2h2v1h-2v3h-14v-3h-2v-1h2v-2c0-2.76 2.24-5 5-5h4c.34 0 .68.04 1 .1v-2.02c-.33-.05-.66-.08-1-.08h-1v-1.27c.6-.34 1-.99 1-1.73 0-1.1-.89-2-2-2s-2 .9-2 2c0 .74.4 1.39 1 1.73v1.27h-1c-3.87 0-7 3.13-7 7h-1c-.55 0-1 .45-1 1v3c0 .55.45 1 1 1h1v1c0 1.11.9 2 2 2h14c1.11 0 2-.89 2-2v-1h1c.55 0 1-.45 1-1v-3c0-.55-.45-1-1-1m-13.5-.5c-1.1 0-2 .9-2 2s.9 2 2 2 2-.89 2-2-.89-2-2-2z" fill="#1e1e1e" fill-rule="nonzero" transform="matrix(79.1339 0 0 79.1339 272.728 115.501)"/></svg>